<svg width="25" height="25" viewBox="0 0 25 25" fill="none" xmlns="http://www.w3.org/2000/svg">
<path fill-rule="evenodd" clip-rule="evenodd" d="M16.01 14.3671H15.22L14.94 14.0971C15.92 12.9571 16.51 11.4771 16.51 9.86707C16.51 6.27707 13.6 3.36707 10.01 3.36707C6.42001 3.36707 3.51001 6.27707 3.51001 9.86707C3.51001 13.4571 6.42001 16.3671 10.01 16.3671C11.62 16.3671 13.1 15.7771 14.24 14.7971L14.51 15.0771V15.8671L19.51 20.8571L21 19.3671L16.01 14.3671ZM10.01 14.3671C7.52001 14.3671 5.51001 12.3571 5.51001 9.86707C5.51001 7.37707 7.52001 5.36707 10.01 5.36707C12.5 5.36707 14.51 7.37707 14.51 9.86707C14.51 12.3571 12.5 14.3671 10.01 14.3671Z" fill="white"/>
</svg>
